<?xml version="1.0" encoding="utf-8"?>
<!-- Generator: Adobe Illustrator 21.1.0, SVG Export Plug-In . SVG Version: 6.00 Build 0)  -->
<svg version="1.1" id="Layer_1" xmlns="http://www.w3.org/2000/svg" xmlns:xlink="http://www.w3.org/1999/xlink" x="0px" y="0px"
	 viewBox="0 0 36 36" style="enable-background:new 0 0 36 36;" xml:space="preserve">
<style type="text/css">
	.st0{fill:#111111;}
</style>
<g class='sortable-handle'>
	<g>
		<path class="st0" d="M12.5,12c1.7,0,3-1.3,3-3s-1.3-3-3-3s-3,1.3-3,3S10.8,12,12.5,12z M12.5,15c-1.7,0-3,1.3-3,3s1.3,3,3,3
			s3-1.3,3-3S14.2,15,12.5,15z M12.5,24c-1.7,0-3,1.3-3,3s1.3,3,3,3s3-1.3,3-3S14.2,24,12.5,24z"/>
	</g>
	<g>
		<path class="st0" d="M23.5,12c1.7,0,3-1.3,3-3s-1.3-3-3-3s-3,1.3-3,3S21.8,12,23.5,12z M23.5,15c-1.7,0-3,1.3-3,3s1.3,3,3,3
			s3-1.3,3-3S25.2,15,23.5,15z M23.5,24c-1.7,0-3,1.3-3,3s1.3,3,3,3s3-1.3,3-3S25.2,24,23.5,24z"/>
	</g>
</g>
</svg>
