<?xml version="1.0" encoding="utf-8"?>
<svg version="1.1" id="Duotone" xmlns="http://www.w3.org/2000/svg" xmlns:xlink="http://www.w3.org/1999/xlink" x="0px" y="0px"
	 viewBox="0 0 100 112" style="enable-background:new 0 0 100 112;" xml:space="preserve">
<title>41- cloud-laptop-file-upload</title>
<g class='file-upload'>
	<ellipse class="st0" cx="50" cy="85.9" rx="20" ry="1.5"/>
	<path class="st1" d="M69.7,23.7c0.1-0.5,0.2-1.1,0.2-1.6c0-3.8-3.1-6.9-6.9-6.9c-1.5,0-3,0.5-4.2,1.4c-5-5.9-13.7-6.6-19.6-1.6
		c-3.1,2.6-4.9,6.5-4.9,10.6v0.1c-0.3-0.1-0.6-0.1-0.9-0.1c-3.8,0.5-6.6,3.9-6.1,7.8c0.4,3.2,2.9,5.7,6.1,6.1h31.3
		c4.8,0,8.7-3.9,8.7-8.7C73.4,28,72,25.4,69.7,23.7L69.7,23.7z"/>
	<path class="st2" d="M69.7,23.7c0.1-0.5,0.2-1.1,0.2-1.6c0-3.8-3.1-6.9-6.9-6.9c-1.5,0-3,0.5-4.2,1.4c-5-5.9-13.7-6.6-19.6-1.6
		c-3.1,2.6-4.9,6.5-4.9,10.6v0.1c-0.3-0.1-0.6-0.1-0.9-0.1c-3.8,0.5-6.6,3.9-6.1,7.8c0.4,3.2,2.9,5.7,6.1,6.1h31.3
		c4.8,0,8.7-3.9,8.7-8.7C73.4,28,72,25.4,69.7,23.7L69.7,23.7z"/>
	<path class="st0" d="M58.3,33.9c-0.8,0.8-2,0.8-2.8,0c0,0,0,0,0,0l-3.1-3.1V49c0,1.4-1.1,2.5-2.5,2.5s-2.5-1.1-2.5-2.5V30.8
		l-3.1,3.1c-0.7,0.8-2,0.9-2.8,0.1c-0.8-0.7-0.9-2-0.1-2.8c0,0,0.1-0.1,0.1-0.1l7-7c0.4-0.4,0.9-0.6,1.4-0.6c0.5,0,1,0.2,1.4,0.6
		l7,7C59.1,31.9,59.1,33.1,58.3,33.9z"/>
	<path class="st3" d="M58.3,33.9c-0.8,0.8-2,0.8-2.8,0c0,0,0,0,0,0l-3.1-3.1V49c0,1.4-1.1,2.5-2.5,2.5s-2.5-1.1-2.5-2.5V30.8
		l-3.1,3.1c-0.7,0.8-2,0.9-2.8,0.1c-0.8-0.7-0.9-2-0.1-2.8c0,0,0.1-0.1,0.1-0.1l7-7c0.4-0.4,0.9-0.6,1.4-0.6c0.5,0,1,0.2,1.4,0.6
		l7,7C59.1,31.9,59.1,33.1,58.3,33.9z"/>
	<path class="st4" d="M29.5,80.5h41c0.6,0,1,0.4,1,1v2l0,0h-43l0,0v-2C28.5,80.9,28.9,80.5,29.5,80.5z"/>
	<path class="st4" d="M71.5,83.5h-43c0.7,1.3,2,2.1,3.4,2h36.1C69.5,85.5,70.8,84.8,71.5,83.5L71.5,83.5z"/>
	<path class="st0" d="M33.5,57.5h33c1.1,0,2,0.9,2,2v21l0,0h-37l0,0v-21C31.5,58.4,32.4,57.5,33.5,57.5z"/>
	<path class="st1" d="M60,57.5H33.5c-1.1,0-2,0.9-2,2v21L60,57.5z"/>
	<path class="st5" d="M33.5,57.5h33c1.1,0,2,0.9,2,2v21l0,0h-37l0,0v-21C31.5,58.4,32.4,57.5,33.5,57.5z"/>
	<path class="st4" d="M41.8,65.7c0.1,0.5-0.1,1-0.6,1.1c0,0,0,0,0,0L29.3,70c-0.5,0.1-1-0.2-1.1-0.6c0,0,0,0,0,0l-3.8-14.2
		c-0.1-0.5,0.2-1,0.7-1.1l8.2-2.2l5.8,3.3L41.8,65.7z"/>
	<polygon class="st4" points="33.2,51.9 34.4,56.5 39,55.2 	"/>
	<line class="st2" x1="27.6" y1="58.3" x2="32.2" y2="57.1"/>
	<line class="st2" x1="28.2" y1="60.5" x2="36.9" y2="58.2"/>
	<line class="st2" x1="28.8" y1="62.8" x2="37.5" y2="60.5"/>
	<line class="st2" x1="29.4" y1="65.1" x2="38.2" y2="62.8"/>
	<path class="st1" d="M74.2,69.2c-0.1,0.5-0.6,0.8-1.1,0.6c0,0,0,0,0,0L58.7,66c-0.5-0.1-0.8-0.6-0.7-1.1c0,0,0,0,0,0l3-11.1
		c0.1-0.5,0.6-0.8,1.1-0.6c0,0,0,0,0,0l2.6,0.7l1.2,2.1l10.2,2.8c0.5,0.1,0.7,0.6,0.6,1.1c0,0,0,0,0,0L74.2,69.2z"/>
	<path class="st2" d="M74.2,69.2c-0.1,0.5-0.6,0.8-1.1,0.6c0,0,0,0,0,0L58.7,66c-0.5-0.1-0.8-0.6-0.7-1.1c0,0,0,0,0,0l3-11.1
		c0.1-0.5,0.6-0.8,1.1-0.6c0,0,0,0,0,0l2.6,0.7l1.2,2.1l10.2,2.8c0.5,0.1,0.7,0.6,0.6,1.1c0,0,0,0,0,0L74.2,69.2z"/>
</g>
</svg>
