<?xml version="1.0" encoding="utf-8"?>
<!-- Generator: Adobe Illustrator 21.1.0, SVG Export Plug-In . SVG Version: 6.00 Build 0)  -->
<svg version="1.1" id="Layer_1" xmlns="http://www.w3.org/2000/svg" xmlns:xlink="http://www.w3.org/1999/xlink" x="0px" y="0px"
	 viewBox="0 0 48 48" style="enable-background:new 0 0 48 48;" xml:space="preserve">
<g class='video-icon'>
	<path class="st0" d="M43,47H5c-2.2,0-4-1.8-4-4V5c0-2.2,1.8-4,4-4h38c2.2,0,4,1.8,4,4v38C47,45.2,45.2,47,43,47z"/>
	<path class="st1" d="M18,33c-0.2,0-0.3,0-0.5-0.1C17.2,32.7,17,32.4,17,32V16c0-0.4,0.2-0.7,0.5-0.9c0.3-0.2,0.7-0.2,1,0l12,8
		c0.3,0.2,0.4,0.5,0.4,0.8s-0.2,0.6-0.4,0.8l-12,8C18.4,32.9,18.2,33,18,33z"/>
</g>
</svg>
