<?xml version="1.0" encoding="utf-8"?>
<!-- Generator: Adobe Illustrator 21.1.0, SVG Export Plug-In . SVG Version: 6.00 Build 0)  -->
<svg version="1.1" id="Duotone" xmlns="http://www.w3.org/2000/svg" xmlns:xlink="http://www.w3.org/1999/xlink" x="0px" y="0px"
	 viewBox="0 0 178 178" style="enable-background:new 0 0 178 178;" xml:space="preserve">
<title>32- typewriter-paper-pen</title>
<g class="empty-state-icon">
	<g id="Scene">
		<path class="st0" d="M109.1,130.5c-3.8-0.9-7.7,1.2-9,4.9c-0.4-0.6-0.9-1-1.6-1.1c-0.7-0.2-1.4,0-1.9,0.3c0.4-4.2-2.7-8-6.9-8.4
			c-4.2-0.4-8,2.7-8.4,6.9s2.7,8,6.9,8.4c3.3,0.3,6.5-1.6,7.8-4.6c0.6-0.2,1.3-0.3,2-0.1s1.2,0.5,1.7,1c-0.2,4.3,3.1,7.9,7.4,8.1
			s7.9-3.1,8.1-7.4C115.3,134.8,112.7,131.4,109.1,130.5L109.1,130.5z"/>
		<path class="st0" d="M60.9,113.4c0.9-0.3,1.3-1.3,1-2.2l-7.3-20.1l-1.9-22.6c-0.1-1-0.9-1.7-1.9-1.6l0,0L46,67.4l-0.3-0.8
			c-0.3-0.9-1.3-1.3-2.2-1l-7.1,2.6L14.8,70c-0.9,0.1-1.7,0.9-1.6,1.9l0.4,4.6L9.4,78c-0.9,0.3-1.3,1.3-1,2.2l7.1,19.6l1.6,19.4
			c0.1,0.9,0.9,1.7,1.9,1.6l4-0.3l1.6,4.4c0.3,0.9,1.3,1.3,2.2,1l20.6-7.5l7.7-0.7c0.9-0.1,1.7-0.9,1.6-1.9l0,0l-0.1-0.8L60.9,113.4
			z"/>
		<path class="st0" d="M140.8,71.3L73.4,61l-0.9,5.8c-3.9,2.7-4.9,8.1-2.1,12.1c2.7,3.9,8.1,4.9,12.1,2.1c3.3-2.3,4.6-6.6,3.1-10.3
			l39.9,6.1c-1,1.2-1.6,2.6-1.8,4.1c-0.8,4.7,2.4,9.1,7.1,9.9c4.7,0.8,9.1-2.4,9.9-7.1c0.3-1.9,0-3.8-0.9-5.5L140.8,71.3z"/>
		<path class="st0" d="M117.9,118.4l-37.5-5.7c-5.6-0.9-9.5-6.2-8.7-11.8l1.2-7.7l58,8.9l-1.2,7.7
			C128.8,115.4,123.5,119.3,117.9,118.4L117.9,118.4z"/>
		<path class="st0" d="M129.8,47.7L90.5,42c-4.7-0.7-9.1,2.6-9.8,7.3l0,0L74,95.4c-0.8,5.7,3.1,10.9,8.7,11.7l0,0l35.8,5.2
			c5.7,0.8,10.9-3.1,11.7-8.8l6.7-46.1C137.8,52.8,134.5,48.4,129.8,47.7L129.8,47.7z"/>
		<path class="st1" d="M129.8,47.7L90.5,42c-4.7-0.7-9.1,2.6-9.8,7.3l0,0L74,95.4c-0.8,5.7,3.1,10.9,8.7,11.7l0,0l35.8,5.2
			c5.7,0.8,10.9-3.1,11.7-8.8l6.7-46.1C137.8,52.8,134.5,48.4,129.8,47.7L129.8,47.7z"/>
		<line class="st1" x1="83.6" y1="102" x2="121.1" y2="107.5"/>
		<path class="st2" d="M82.6,96.7c-0.2,0.9-1.1,1.6-2,1.4s-1.6-1.1-1.4-2s1-1.5,1.9-1.4C82.1,94.8,82.8,95.7,82.6,96.7
			C82.6,96.6,82.6,96.7,82.6,96.7z"/>
		<path class="st2" d="M91.2,97.9c-0.2,0.9-1.1,1.6-2,1.4s-1.6-1.1-1.4-2s1-1.6,2-1.4C90.6,96,91.3,96.9,91.2,97.9L91.2,97.9z"/>
		<path class="st2" d="M99.7,99.1c-0.2,0.9-1.1,1.6-2,1.4s-1.6-1.1-1.4-2s1-1.5,1.9-1.4C99.2,97.3,99.8,98.1,99.7,99.1L99.7,99.1z"
			/>
		<path class="st2" d="M108.2,100.4c-0.1,0.9-1,1.6-2,1.5c-0.9-0.1-1.6-1-1.5-2c0.1-0.9,1-1.6,2-1.5l0,0
			C107.7,98.6,108.4,99.4,108.2,100.4L108.2,100.4z"/>
		<path class="st2" d="M116.8,101.6c-0.2,0.9-1.1,1.6-2,1.4s-1.6-1.1-1.4-2s1-1.5,1.9-1.4C116.2,99.7,116.9,100.6,116.8,101.6
			L116.8,101.6z"/>
		<path class="st2" d="M87.9,90.5c-0.2,0.9-1.1,1.6-2,1.4s-1.6-1.1-1.4-2s1-1.5,1.9-1.4C87.4,88.6,88,89.5,87.9,90.5
			C87.9,90.4,87.9,90.4,87.9,90.5z"/>
		<path class="st2" d="M96.4,91.7c-0.2,0.9-1.1,1.6-2,1.4s-1.6-1.1-1.4-2s1-1.6,2-1.4C95.9,89.8,96.6,90.7,96.4,91.7L96.4,91.7z"/>
		<path class="st2" d="M104.9,92.9c-0.2,0.9-1.1,1.6-2,1.4s-1.6-1.1-1.4-2s1-1.5,1.9-1.4C104.4,91.1,105.1,92,104.9,92.9L104.9,92.9
			z"/>
		<path class="st2" d="M113.5,94.2c-0.2,0.9-1.1,1.6-2,1.4s-1.6-1.1-1.4-2s1-1.6,2-1.4C113,92.3,113.6,93.2,113.5,94.2
			C113.5,94.1,113.5,94.2,113.5,94.2z"/>
		<path class="st2" d="M122,95.4c-0.2,0.9-1.1,1.6-2,1.4s-1.6-1.1-1.4-2s1-1.5,1.9-1.4C121.5,93.5,122.1,94.4,122,95.4L122,95.4z"/>
		<path class="st2" d="M125.3,102.9c-0.2,0.9-1.1,1.6-2,1.4s-1.6-1.1-1.4-2s1-1.6,2-1.4C124.8,101,125.4,101.9,125.3,102.9
			C125.3,102.8,125.3,102.8,125.3,102.9z"/>
		<path class="st3" d="M78.8,63l-0.7,5c14.2,16.2,38.1,19.6,56.3,8.2l0.7-5L78.8,63z"/>
		<line class="st1" x1="76.1" y1="81.8" x2="132.4" y2="89.9"/>

			<rect x="101" y="26.7" transform="matrix(0.1437 -0.9896 0.9896 0.1437 32.7445 158.4567)" class="st0" width="13.8" height="67.3"/>
		<line class="st1" x1="76.1" y1="45.2" x2="73.2" y2="65.7"/>
		<line class="st1" x1="142.7" y1="54.8" x2="139.8" y2="75.3"/>
		<path class="st0" d="M142.4,68.8l-1.7-0.2l1-6.8l1.7,0.2c0.9,0.1,1.6,1,1.5,1.9c0,0,0,0,0,0.1l-0.5,3.4
			C144.3,68.3,143.4,68.9,142.4,68.8z"/>

			<rect x="101" y="26.7" transform="matrix(0.1437 -0.9896 0.9896 0.1437 32.7445 158.4567)" class="st1" width="13.8" height="67.3"/>
		<path class="st1" d="M142.4,68.8l-1.7-0.2l1-6.8l1.7,0.2c0.9,0.1,1.6,1,1.5,1.9c0,0,0,0,0,0.1l-0.5,3.4
			C144.3,68.3,143.4,68.9,142.4,68.8z"/>
		<path class="st4" d="M74.2,58.8l-1.7-0.2c-1-0.1-1.6-1-1.5-2l0,0l0.5-3.4c0.1-0.9,1-1.6,1.9-1.5c0,0,0,0,0.1,0l1.7,0.2L74.2,58.8z
			"/>
		<path class="st1" d="M78.8,63l-0.7,5c14.2,16.2,38.1,19.6,56.3,8.2l0.7-5L78.8,63z"/>
		<polyline class="st1" points="98.6,81.1 106.9,67.1 91.8,78.4 		"/>
		<line class="st1" x1="83.3" y1="73.1" x2="106.9" y2="67.1"/>
		<polyline class="st1" points="127.9,79.5 106.9,67.1 118.3,82.3 		"/>
		<polyline class="st1" points="111,82.9 106.9,67.1 104.7,82.4 		"/>
		<path class="st3" d="M89.6,72.4C89,76.6,85,79.6,80.8,79c-4.2-0.6-7.2-4.6-6.6-8.8c0.6-4.2,4.6-7.2,8.8-6.6
			C87.3,64.2,90.2,68.2,89.6,72.4z"/>
		<path class="st3" d="M137.4,79.3c-0.6,4.2-4.6,7.2-8.8,6.6s-7.2-4.6-6.6-8.8c0.6-4.2,4.6-7.2,8.8-6.6l0,0
			C135.1,71.2,138,75.1,137.4,79.3z"/>
		<path class="st1" d="M89.6,72.4C89,76.6,85,79.6,80.8,79c-4.2-0.6-7.2-4.6-6.6-8.8c0.6-4.2,4.6-7.2,8.8-6.6
			C87.3,64.2,90.2,68.2,89.6,72.4z"/>
		<path class="st1" d="M137.4,79.3c-0.6,4.2-4.6,7.2-8.8,6.6s-7.2-4.6-6.6-8.8c0.6-4.2,4.6-7.2,8.8-6.6l0,0
			C135.1,71.2,138,75.1,137.4,79.3z"/>
		<polygon class="st3" points="139.6,40.4 83.2,32.3 82.2,63.5 131.7,70.7 		"/>
		<polygon class="st1" points="139.6,40.4 83.2,32.3 82.2,63.5 131.7,70.7 		"/>
		<line class="st1" x1="88.6" y1="43.5" x2="100.5" y2="45.2"/>
		<line class="st1" x1="93" y1="49.4" x2="130.5" y2="54.8"/>
		<line class="st1" x1="88.8" y1="54" x2="128.1" y2="59.7"/>
		<line class="st1" x1="88.1" y1="59.1" x2="127.3" y2="64.8"/>
		<path class="st4" d="M83.9,63.7l3.4,0.5l0.7-5.1l-1.7-0.2c-0.9-0.2-1.8,0.5-2,1.4l0,0L83.9,63.7z"/>
		<path class="st4" d="M126.6,69.9l3.4,0.5l0.5-3.4c0.2-0.9-0.5-1.8-1.4-2c0,0,0,0-0.1,0l-1.7-0.2L126.6,69.9z"/>

			<rect x="104.7" y="61.9" transform="matrix(0.1437 -0.9896 0.9896 0.1437 28.0145 161.4445)" class="st1" width="5.2" height="5.2"/>
		<path class="st3" d="M141.8,46c0.9,0.2,1.8-0.5,2-1.4c0-0.3,0-0.6-0.1-0.8c-0.7-1.8-2.2-3-4.1-3.3l-56.3-8.2
			c-1.9-0.3-3.7,0.5-4.9,2c-0.6,0.8-0.4,1.8,0.4,2.4c0.2,0.2,0.5,0.3,0.8,0.3L141.8,46z"/>
		<path class="st1" d="M141.8,46c0.9,0.2,1.8-0.5,2-1.4c0-0.3,0-0.6-0.1-0.8c-0.7-1.8-2.2-3-4.1-3.3l-56.3-8.2
			c-1.9-0.3-3.7,0.5-4.9,2c-0.6,0.8-0.4,1.8,0.4,2.4c0.2,0.2,0.5,0.3,0.8,0.3L141.8,46z"/>
		<circle class="st0" cx="147.4" cy="120.7" r="12.1"/>
		<path class="st2" d="M156.6,128.4c1,1.1,2.6,1.1,3.7,0.1c1.1-1,1.1-2.6,0.1-3.7l-0.1-0.1l-4.2-4.3l-3.7,3.7L156.6,128.4z"/>
		<circle class="st2" cx="147.4" cy="115.6" r="11.2"/>
		<circle class="st0" cx="147.4" cy="115.6" r="7.8"/>
		<circle class="st1" cx="147.4" cy="115.6" r="7.8"/>
		<path class="st4" d="M15.5,66.3l34.3-3.8c0.9-0.1,1.8,0.6,1.9,1.5l0,0l5.4,48c0.1,0.9-0.6,1.8-1.5,1.9l-34.3,3.8
			c-0.9,0.1-1.8-0.6-1.9-1.5l0,0l-5.4-48C13.9,67.3,14.6,66.5,15.5,66.3L15.5,66.3L15.5,66.3z"/>
		<path class="st2" d="M61.9,106.2c0.3,0.9-0.1,1.9-1,2.2l0,0l-32.2,12.3c-0.9,0.3-1.9-0.1-2.2-1L11,79.3l5.9-9.5l25.5-9.7
			c0.9-0.3,1.9,0.1,2.2,1L61.9,106.2z"/>
		<line class="st1" x1="25.8" y1="77.5" x2="42.9" y2="71"/>
		<line class="st1" x1="18.9" y1="85.7" x2="44.7" y2="75.8"/>
		<line class="st1" x1="20.8" y1="90.5" x2="46.6" y2="80.7"/>
		<line class="st1" x1="22.6" y1="95.3" x2="48.4" y2="85.5"/>
		<line class="st1" x1="24.5" y1="100.2" x2="50.3" y2="90.3"/>
		<line class="st1" x1="26.3" y1="105" x2="52.1" y2="95.2"/>
		<line class="st1" x1="28.2" y1="109.9" x2="54" y2="100"/>
		<line class="st1" x1="30" y1="114.7" x2="55.8" y2="104.8"/>
		<line class="st1" x1="24.9" y1="72.3" x2="41" y2="66.2"/>
		<path class="st3" d="M26.4,86.4l1.1-1.3c0.6-0.7,1.7-0.8,2.4-0.2l0,0l20.8,18.2c0.7,0.6,0.8,1.7,0.2,2.4l0,0l-1.1,1.3
			c-0.6,0.7-1.7,0.8-2.4,0.2l0,0L26.6,88.9C25.9,88.3,25.8,87.2,26.4,86.4C26.4,86.5,26.4,86.5,26.4,86.4L26.4,86.4z"/>
		<line class="st1" x1="44.3" y1="97.5" x2="40.9" y2="101.4"/>
		<path class="st1" d="M50.8,103.1c1.2-1.4,1.1-3.6-0.3-4.9l-7.8-6.8"/>
		<path class="st0" d="M23.4,86c1,1,2.7,1,3.7-0.1c1-1,1-2.7-0.1-3.7c-0.1-0.1-0.1-0.1-0.2-0.2c-1.1-0.9-5-0.9-5-0.9
			S22.3,85.1,23.4,86z"/>
		<path class="st1" d="M23.4,86c1,1,2.7,1,3.7-0.1c1-1,1-2.7-0.1-3.7c-0.1-0.1-0.1-0.1-0.2-0.2c-1.1-0.9-5-0.9-5-0.9
			S22.3,85.1,23.4,86z"/>
		<path class="st1" d="M26.4,86.4l1.1-1.3c0.6-0.7,1.7-0.8,2.4-0.2l0,0l20.8,18.2c0.7,0.6,0.8,1.7,0.2,2.4l0,0l-1.1,1.3
			c-0.6,0.7-1.7,0.8-2.4,0.2l0,0L26.6,88.9C25.9,88.3,25.8,87.2,26.4,86.4C26.4,86.5,26.4,86.5,26.4,86.4L26.4,86.4z"/>
		<path class="st1" d="M80.7,138.1l2.4-2.9c1.6-1.9,4.1-2.8,6.5-2.4l25.8,4.5"/>
		<path class="st1" d="M111,145.1l-0.9-3.6c-0.6-2.4-2.4-4.3-4.8-5l-25.2-7.4"/>
		<path class="st0" d="M95.3,132.6c-0.9,3.7-4.6,6-8.3,5.2c-3.7-0.9-6-4.6-5.2-8.3c0.9-3.7,4.6-6,8.3-5.2
			C93.8,125.2,96.1,128.9,95.3,132.6L95.3,132.6z"/>
		<path class="st3" d="M82.7,134.7c-2-3.2-1-7.5,2.2-9.5s7.5-1,9.5,2.2L82.7,134.7z"/>
		<path class="st0" d="M113.8,137c-0.9,3.7-4.6,6-8.3,5.1s-6-4.6-5.1-8.3s4.6-6,8.3-5.1C112.3,129.6,114.6,133.3,113.8,137
			L113.8,137z"/>
		<path class="st3" d="M101.2,139c-2-3.2-1-7.5,2.2-9.5s7.5-1,9.5,2.2L101.2,139z"/>
		<path class="st1" d="M95.3,132.6c0.1-1.4,1.4-2.5,2.8-2.3s2.5,1.4,2.3,2.8c0,0.2-0.1,0.4-0.2,0.7"/>
		<line class="st1" x1="81.8" y1="129.5" x2="80.2" y2="129.1"/>
		<line class="st1" x1="115.4" y1="137.3" x2="113.8" y2="136.9"/>
		<path class="st1" d="M95.3,132.6c-0.9,3.7-4.6,6-8.3,5.2c-3.7-0.9-6-4.6-5.2-8.3c0.9-3.7,4.6-6,8.3-5.2
			C93.8,125.2,96.1,128.9,95.3,132.6L95.3,132.6z"/>
		<path class="st1" d="M113.8,137c-0.9,3.7-4.6,6-8.3,5.1s-6-4.6-5.1-8.3s4.6-6,8.3-5.1C112.3,129.6,114.6,133.3,113.8,137
			L113.8,137z"/>
		<path class="st4" d="M16.9,69.8l2.7,4.8c0.5,0.8,0.2,1.9-0.6,2.4c-0.1,0.1-0.2,0.1-0.4,0.2L11,79.3L16.9,69.8z"/>
	</g>
</g>
</svg>
