<?xml version="1.0" encoding="utf-8"?>
<!-- Generator: Adobe Illustrator 21.1.0, SVG Export Plug-In . SVG Version: 6.00 Build 0)  -->
<svg version="1.1" id="Layer_1" xmlns="http://www.w3.org/2000/svg" xmlns:xlink="http://www.w3.org/1999/xlink" x="0px" y="0px"
	 viewBox="0 0 48 48" style="enable-background:new 0 0 48 48;" xml:space="preserve">
<g class='file-icon'>
	<path class="st0" d="M43,3v32L31,47H7c-1.1,0-2-0.9-2-2V3c0-1.1,0.9-2,2-2h34C42.1,1,43,1.9,43,3z"/>
	<path class="st1" d="M31,47V37c0-1.1,0.9-2,2-2h10L31,47z"/>
	<path class="st1" d="M34,13H14c-0.6,0-1-0.4-1-1s0.4-1,1-1h20c0.6,0,1,0.4,1,1S34.6,13,34,13z"/>
	<path class="st1" d="M34,23H14c-0.6,0-1-0.4-1-1s0.4-1,1-1h20c0.6,0,1,0.4,1,1S34.6,23,34,23z"/>
	<path class="st1" d="M22,33h-8c-0.6,0-1-0.4-1-1s0.4-1,1-1h8c0.6,0,1,0.4,1,1C23,32.6,22.6,33,22,33z"/>
</g>
</svg>
